<svg height="512pt" viewBox="-22 0 512 512.00101" width="512pt" xmlns="http://www.w3.org/2000/svg"><path d="m467.007812 148.945312-19.8125-62.738281c-1-3.164062-3.933593-5.3125-7.25-5.3125h-24.363281l-3.917969-21.132812c-.667968-3.605469-3.8125-6.21875-7.476562-6.21875h-61.746094v-45.9375c0-4.199219-3.40625-7.605469-7.605468-7.605469h-32.167969c-4.199219 0-7.605469 3.40625-7.605469 7.605469v45.9375h-61.746094c-3.664062 0-6.804687 2.613281-7.476562 6.21875l-3.917969 21.132812h-24.359375c-3.320312 0-6.253906 2.148438-7.253906 5.3125l-19.808594 62.734375c-.730469 2.3125-.316406 4.832032 1.117188 6.785156 1.433593 1.957032 3.710937 3.109376 6.132812 3.109376h11.984375l2.214844 30.148437h-17.796875v-9.570313c0-4.199218-3.402344-7.605468-7.601563-7.605468h-41.75c-4.199219 0-7.605469 3.40625-7.605469 7.605468v9.570313h-34.148437c-4.199219 0-7.601563 3.402344-7.601563 7.601563v11.132812h-34.136718c-4.199219 0-7.605469 3.40625-7.605469 7.605469v43.007812h-26.097656c-2.234375 0-4.351563.980469-5.796875 2.679688-1.445313 1.699219-2.070313 3.949219-1.707032 6.152343l39.023438 238.460938c.601562 3.675781 3.78125 6.375 7.503906 6.375h368.175782c3.984374 0 7.292968-3.074219 7.582031-7.046875l13.972656-190.496094c.308594-4.1875-2.835937-7.832031-7.023437-8.140625-4.191407-.308594-7.835938 2.839844-8.140626 7.027344l-5.40625 73.671875c-6.035156 2.273437-12.300781 3.441406-18.6875 3.441406-36.238281 0-65.71875-37.1875-65.71875-82.902343 0-45.710938 29.480469-82.902344 65.71875-82.902344 10.4375 0 20.703126 3.148437 29.929688 9.125l-3.320312 45.261718c-.308594 4.1875 2.835937 7.832032 7.023437 8.140626.191406.011718.378906.019531.566406.019531 3.945313 0 7.28125-3.050781 7.574219-7.050781l8.898438-121.308594h11.980468c2.425782 0 4.703125-1.15625 6.132813-3.109375 1.433593-1.957031 1.847656-4.476563 1.121093-6.785157zm-224.570312 109.386719h-4.277344c-4.203125 0-7.605468 3.40625-7.605468 7.605469 0 17.636719-5.414063 34.035156-14.660157 47.625v-90.632812h26.542969zm-41.75-54.140625v126.308594c-7.769531 6.628906-16.734375 11.886719-26.535156 15.386719v-141.695313zm-68.285156-17.175781h26.542968v162.757813c-4.324218.683593-8.757812 1.042968-13.273437 1.042968-4.511719 0-8.941406-.359375-13.265625-1.042968v-162.757813zm-41.75 17.175781h26.542968v141.699219c-9.804687-3.503906-18.773437-8.765625-26.542968-15.394531zm-41.742188 18.738282h26.535156v90.625c-9.242187-13.585938-14.65625-29.980469-14.65625-47.617188 0-4.199219-3.402343-7.605469-7.601562-7.605469h-4.277344zm-3.042968 50.609374c3.898437 51.652344 47.171874 92.484376 99.804687 92.484376s95.90625-40.832032 99.804687-92.484376h29.3125l-15.890624 97.097657h-180.871094c-4.199219 0-7.601563 3.402343-7.601563 7.605469 0 4.199218 3.402344 7.601562 7.601563 7.601562h178.382812l-11.78125 71.996094h-197.914062l-11.78125-71.996094h12.675781c4.203125 0 7.605469-3.402344 7.605469-7.601562 0-4.203126-3.402344-7.605469-7.605469-7.605469h-15.164063l-15.890624-97.097657zm3.335937 199.507813h192.9375l-3.886719 23.746094h-15.542968c-.007813 0-.015626 0-.019532 0h-169.601562zm347.898437-263.605469c-44.621093 0-80.925781 44.015625-80.925781 98.113282 0 54.097656 36.304688 98.109374 80.925781 98.109374 5.9375 0 11.785157-.785156 17.488282-2.308593l-6.851563 93.4375h-154.074219l37.578126-229.628907c.363281-2.203124-.261719-4.453124-1.707032-6.152343-1.445312-1.699219-3.5625-2.679688-5.792968-2.679688h-26.097657v-43.007812c0-4.199219-3.402343-7.605469-7.601562-7.605469h-34.148438v-11.132812c0-4.199219-3.402343-7.601563-7.605469-7.601563h-1.09375l-2.210937-30.144531h227.542969l-4.265625 58.136718c-9.808594-4.949218-20.386719-7.535156-31.160157-7.535156zm-86.828124-194.234375h16.960937v38.335938h-16.960937zm-70.628907 53.542969h158.21875l2.25 12.144531h-162.722656zm-51.519531 74.878906 15.007812-47.527344h231.238282l15.007812 47.527344zm0 0"/></svg>