<svg height="512pt" viewBox="-15 0 512 512" width="512pt" xmlns="http://www.w3.org/2000/svg"><path d="m7.5 512h467.910156c4.140625 0 7.5-3.359375 7.5-7.5 0-4.144531-3.359375-7.5-7.5-7.5h-5.265625v-147.785156c0-4.144532-3.355469-7.5-7.5-7.5-4.140625 0-7.5 3.355468-7.5 7.5v147.785156h-95.59375v-331.523438h95.59375v148.738282c0 4.140625 3.359375 7.5 7.5 7.5 4.144531 0 7.5-3.359375 7.5-7.5v-149.308594c0-7.957031-6.472656-14.429688-14.433593-14.429688h-96.730469c-7.957031 0-14.429688 6.472657-14.429688 14.429688v72.0625h-30.296875c-4.144531 0-7.503906 3.359375-7.503906 7.5s3.359375 7.5 7.503906 7.5h30.296875v245.03125h-95.597656v-245.03125h30.296875c4.144531 0 7.5-3.359375 7.5-7.5s-3.355469-7.5-7.5-7.5h-30.863281c-7.960938 0-14.433594 6.472656-14.433594 14.433594v95.199218h-95.59375v-42.3125c0-7.960937-6.476563-14.433593-14.433594-14.433593h-96.730469c-7.957031 0-14.429687 6.472656-14.429687 14.433593v192.710938h-5.265625c-4.144531 0-7.5 3.355469-7.5 7.5 0 4.140625 3.359375 7.5 7.5 7.5zm130.859375-150.398438h95.597656v135.398438h-95.597656zm-110.59375-56.746093h95.59375v192.144531h-95.59375zm0 0"/><path d="m75.5625 196.066406c7.800781 0 14.878906-3.167968 20.007812-8.285156l62.773438 31.230469c-.34375 1.765625-.53125 3.589843-.53125 5.457031 0 15.628906 12.714844 28.34375 28.34375 28.34375s28.34375-12.714844 28.34375-28.34375c0-5.050781-1.335938-9.792969-3.660156-13.90625l71.792968-71.164062c4.160157 2.402343 8.980469 3.78125 14.121094 3.78125 15.628906 0 28.339844-12.714844 28.339844-28.34375 0-3.871094-.78125-7.5625-2.191406-10.925782l67.546875-52.828125c4.722656 3.519531 10.570312 5.605469 16.898437 5.605469 15.628906 0 28.34375-12.714844 28.34375-28.34375s-12.714844-28.34375-28.34375-28.34375-28.34375 12.714844-28.34375 28.34375c0 3.871094.78125 7.5625 2.195313 10.929688l-67.546875 52.824218c-4.71875-3.519531-10.570313-5.601562-16.898438-5.601562-15.628906 0-28.34375 12.714844-28.34375 28.34375 0 5.050781 1.332032 9.792968 3.660156 13.90625l-71.792968 71.164062c-11.542969-6.664062-26.226563-4.386718-35.234375 5.675782l-62.015625-30.851563c.570312-2.242187.878906-4.589844.878906-7.007813 0-15.628906-12.714844-28.34375-28.34375-28.34375s-28.34375 12.714844-28.34375 28.34375c0 15.628907 12.714844 28.339844 28.34375 28.339844zm331.785156-181.066406c7.359375 0 13.34375 5.984375 13.34375 13.34375 0 7.355469-5.984375 13.339844-13.34375 13.339844-7.355468 0-13.34375-5.984375-13.34375-13.339844 0-7.359375 5.988282-13.34375 13.34375-13.34375zm-110.59375 86.496094c7.355469 0 13.34375 5.984375 13.34375 13.339844 0 7.359374-5.988281 13.34375-13.34375 13.34375-7.359375 0-13.34375-5.984376-13.34375-13.34375 0-7.355469 5.984375-13.339844 13.34375-13.339844zm-110.597656 109.628906c7.359375 0 13.34375 5.984375 13.34375 13.34375 0 7.355469-5.984375 13.339844-13.34375 13.339844-7.355469 0-13.339844-5.984375-13.339844-13.339844 0-7.359375 5.984375-13.34375 13.339844-13.34375zm-110.59375-56.742188c7.355469 0 13.34375 5.984376 13.34375 13.339844 0 7.359375-5.988281 13.34375-13.34375 13.34375-7.359375 0-13.34375-5.984375-13.34375-13.34375 0-7.355468 5.988281-13.339844 13.34375-13.339844zm0 0"/></svg>