<svg id="Capa_1" enable-background="new 0 0 512.237 512.237" height="512" viewBox="0 0 512.237 512.237" width="512" xmlns="http://www.w3.org/2000/svg"><g><path d="m55.224 265.937h38.882c7.302 0 13.242-5.94 13.242-13.243v-38.881c0-7.302-5.94-13.243-13.242-13.243h-38.882c-7.302 0-13.242 5.94-13.242 13.243v38.881c-.001 7.303 5.94 13.243 13.242 13.243zm1.757-50.367h35.366v35.367h-35.366z"/><path d="m145.949 265.937h38.881c7.303 0 13.243-5.94 13.243-13.243v-38.881c0-7.302-5.94-13.243-13.243-13.243h-38.881c-7.303 0-13.243 5.94-13.243 13.243v38.881c0 7.303 5.94 13.243 13.243 13.243zm1.757-50.367h35.367v35.367h-35.367z"/><path d="m236.674 265.937h38.881c7.303 0 13.243-5.94 13.243-13.243v-38.881c0-7.302-5.94-13.243-13.243-13.243h-38.881c-7.303 0-13.243 5.94-13.243 13.243v38.881c0 7.303 5.94 13.243 13.243 13.243zm1.757-50.367h35.367v35.367h-35.367z"/><path d="m366.279 265.937c7.303 0 13.243-5.94 13.243-13.243v-38.881c0-7.302-5.94-13.243-13.243-13.243h-38.881c-7.303 0-13.243 5.94-13.243 13.243v38.881c0 7.302 5.94 13.243 13.243 13.243zm-37.124-50.367h35.367v35.367h-35.367z"/><path d="m457.005 200.57h-38.882c-7.302 0-13.242 5.94-13.242 13.243v38.881c0 7.302 5.94 13.243 13.242 13.243h38.882c7.302 0 13.242-5.94 13.242-13.243v-38.881c0-7.302-5.94-13.243-13.242-13.243zm-1.758 50.367h-35.366v-35.367h35.366z"/><path d="m41.981 336.257c0 7.302 5.94 13.243 13.242 13.243h38.882c7.302 0 13.242-5.94 13.242-13.243v-38.881c0-7.302-5.94-13.243-13.242-13.243h-38.881c-7.302 0-13.242 5.94-13.242 13.243v38.881zm15-37.124h35.366v35.367h-35.366z"/><path d="m132.706 336.257c0 7.302 5.94 13.243 13.243 13.243h38.881c7.303 0 13.243-5.94 13.243-13.243v-38.881c0-7.302-5.94-13.243-13.243-13.243h-38.881c-7.303 0-13.243 5.94-13.243 13.243zm15-37.124h35.367v35.367h-35.367z"/><path d="m223.431 336.257c0 7.302 5.94 13.243 13.243 13.243h38.881c7.303 0 13.243-5.94 13.243-13.243v-38.881c0-7.302-5.94-13.243-13.243-13.243h-38.881c-7.303 0-13.243 5.94-13.243 13.243zm15-37.124h35.367v35.367h-35.367z"/><path d="m41.981 419.819c0 7.302 5.94 13.243 13.242 13.243h38.882c7.302 0 13.242-5.94 13.242-13.243v-38.881c0-7.302-5.94-13.243-13.242-13.243h-38.881c-7.302 0-13.242 5.94-13.242 13.243v38.881zm15-37.124h35.366v35.367h-35.366z"/><path d="m132.706 419.819c0 7.302 5.94 13.243 13.243 13.243h38.881c7.303 0 13.243-5.94 13.243-13.243v-38.881c0-7.302-5.94-13.243-13.243-13.243h-38.881c-7.303 0-13.243 5.94-13.243 13.243zm15-37.124h35.367v35.367h-35.367z"/><path d="m223.431 419.819c0 7.302 5.94 13.243 13.243 13.243h38.881c7.303 0 13.243-5.94 13.243-13.243v-38.881c0-7.302-5.94-13.243-13.243-13.243h-38.881c-7.303 0-13.243 5.94-13.243 13.243zm15-37.124h35.367v35.367h-35.367z"/><path d="m392.202 439.244c41.352 0 75.822-30.972 80.184-72.043.438-4.119-2.547-7.812-6.666-8.25-4.125-.438-7.812 2.548-8.25 6.666-3.549 33.423-31.607 58.627-65.268 58.627-36.197 0-65.646-29.449-65.646-65.646s29.449-65.646 65.646-65.646c7.168 0 14.251 1.167 21.052 3.47 3.924 1.327 8.181-.776 9.509-4.699 1.329-3.923-.775-8.181-4.698-9.509-8.354-2.828-17.055-4.262-25.862-4.262-44.469 0-80.646 36.178-80.646 80.646s36.176 80.646 80.645 80.646z"/><path d="m447.996 289.964-62.718 58.354-7.717-7.669c-2.162-2.149-5.016-3.367-8.079-3.316-3.048.01-5.909 1.206-8.058 3.368l-15.634 15.733c-2.148 2.162-3.326 5.031-3.316 8.079s1.206 5.91 3.368 8.058l23.063 22.919c4.245 4.217 9.877 6.539 15.86 6.539 5.705 0 11.147-2.14 15.325-6.027l78.558-73.091c4.605-4.286 4.866-11.519.581-16.126l-15.108-16.238c-4.283-4.607-11.517-4.87-16.125-.583zm-58.121 95.054c-1.393 1.295-3.207 2.009-5.108 2.009-1.995 0-3.873-.774-5.288-2.18l-20.517-20.389 10.573-10.64 10.285 10.222c2.858 2.839 7.447 2.915 10.396.171l65.369-60.821 10.218 10.982z"/><path d="m471.044 75.817h-45.98v-17.627c0-10.64-8.656-19.296-19.296-19.296h-6.806c-10.641 0-19.297 8.656-19.297 19.296v17.626h-247.093v-17.626c0-10.64-8.656-19.296-19.296-19.296h-6.806c-10.641 0-19.297 8.656-19.297 19.296v17.626h-45.98c-22.714.001-41.193 18.48-41.193 41.194v244.844c0 4.142 3.357 7.5 7.5 7.5s7.5-3.358 7.5-7.5v-187.233h78.892c4.143 0 7.5-3.358 7.5-7.5s-3.357-7.5-7.5-7.5h-78.892v-42.611c0-14.443 11.75-26.193 26.193-26.193h45.98v17.626c0 10.64 8.656 19.296 19.297 19.296h6.806c10.64 0 19.296-8.656 19.296-19.296v-17.626h247.093v17.626c0 10.64 8.656 19.296 19.297 19.296h6.806c10.64 0 19.296-8.656 19.296-19.296v-17.626h45.98c14.443 0 26.193 11.75 26.193 26.193v42.611h-371.383c-4.143 0-7.5 3.358-7.5 7.5s3.357 7.5 7.5 7.5h371.383v257.53c0 14.443-11.75 26.193-26.193 26.193h-429.851c-14.443-.001-26.193-11.751-26.193-26.194v-38.334c0-4.142-3.357-7.5-7.5-7.5s-7.5 3.358-7.5 7.5v38.334c0 22.714 18.479 41.193 41.193 41.193h429.851c22.714 0 41.193-18.479 41.193-41.193v-315.14c0-22.714-18.479-41.193-41.193-41.193zm-353.472 32.626c0 2.369-1.927 4.296-4.296 4.296h-6.806c-2.369 0-4.297-1.927-4.297-4.296v-50.253c0-2.369 1.928-4.296 4.297-4.296h6.806c2.369 0 4.296 1.927 4.296 4.296zm292.491 0c0 2.369-1.927 4.296-4.296 4.296h-6.806c-2.369 0-4.297-1.927-4.297-4.296v-50.253c0-2.369 1.928-4.296 4.297-4.296h6.806c2.369 0 4.296 1.927 4.296 4.296z"/></g></svg>