<svg id="Capa_1" enable-background="new 0 0 512 512" height="512" viewBox="0 0 512 512" width="512" xmlns="http://www.w3.org/2000/svg"><path d="m422.877 69.123c-44.574-44.575-103.839-69.123-166.877-69.123-61.163 0-119.155 23.302-163.294 65.614-44.002 42.181-69.737 98.87-72.465 159.625-.215 4.804 1.499 9.365 4.828 12.847 3.29 3.44 7.906 5.414 12.665 5.414h10.006c9.355 0 17.033-7.346 17.479-16.724 4.843-101.93 88.644-181.776 190.781-181.776 105.317 0 191 85.683 191 191s-85.683 191-191 191h-161.426c-5.689 0-10.531 3.684-12.047 9.167-1.517 5.483.743 11.132 5.623 14.056l101.33 60.711c1.186.71 2.52 1.066 3.854 1.066 1.274 0 2.55-.324 3.697-.975 2.35-1.332 3.803-3.824 3.803-6.525v-32.5h18.833c4.142 0 7.5-3.357 7.5-7.5s-3.358-7.5-7.5-7.5h-21.333c-6.893 0-12.5 5.607-12.5 12.5v21.764l-82.223-49.264h152.389c113.589 0 206-92.411 206-206s-92.411-206-206-206c-53.293 0-103.849 20.277-142.352 57.097-38.378 36.699-60.898 86.051-63.413 138.966-.065 1.366-1.161 2.437-2.496 2.437h-10.006c-1.574-.156-2.41-1.019-2.507-2.589 5.31-118.267 102.286-210.911 220.774-210.911 121.859 0 221 99.141 221 221s-99.141 221-221 221h-1.333c-4.142 0-7.5 3.357-7.5 7.5s3.358 7.5 7.5 7.5h1.333c63.038 0 122.303-24.548 166.877-69.123 44.575-44.574 69.123-103.839 69.123-166.877s-24.548-122.303-69.123-166.877c-44.574-44.575 44.575 44.574 0 0z"/><path d="m159.856 383.438c28.606 18.703 61.712 28.562 96.144 28.562 97.047 0 176-78.953 176-176s-78.953-176-176-176c-35.544 0-69.795 10.546-99.05 30.498-3.422 2.334-4.304 7-1.971 10.422 2.334 3.423 7 4.305 10.422 1.971 26.754-18.246 58.082-27.891 90.599-27.891 88.775 0 161 72.225 161 161s-72.225 161-161 161c-31.596 0-61.966-9.073-88.182-26.28 2.28-4.567 4.126-9.384 5.482-14.404 24.201 16.622 53.181 25.684 82.7 25.684 80.505 0 146-65.495 146-146s-65.495-146-146-146-146 65.495-146 146c0 7.808.634 15.593 1.861 23.258-4.502-.811-9.129-1.258-13.861-1.258-.502 0-.996.029-1.495.038-.994-7.273-1.505-14.662-1.505-22.038 0-41.783 15.935-81.385 44.869-111.511 2.869-2.987 2.773-7.735-.214-10.604-2.988-2.869-7.736-2.774-10.604.214-31.631 32.933-49.051 76.225-49.051 121.901 0 7.946.543 15.907 1.599 23.75-35.158 7.555-61.599 38.866-61.599 76.25 0 43.01 34.991 78 78 78 25.173 0 47.585-11.997 61.856-30.562zm-34.856-147.438c0-72.233 58.767-131 131-131s131 58.767 131 131-58.767 131-131 131c-29.358 0-57-9.446-80.093-27.333.057-1.216.093-2.437.093-3.667 0-32.378-19.833-60.204-47.985-71.986-1.993-9.152-3.015-18.563-3.015-28.014zm-90 100c0-34.738 28.262-63 63-63s63 28.262 63 63-28.262 63-63 63-63-28.262-63-63z"/><path d="m146 336c0-26.468-21.533-48-48-48s-48 21.532-48 48 21.533 48 48 48 48-21.532 48-48zm-81 0c0-18.196 14.804-33 33-33s33 14.804 33 33-14.804 33-33 33-33-14.804-33-33z"/><path d="m237.375 245h46c6.698 0 11.75 5.374 11.75 12.5v21c0 7.126-5.052 12.5-11.75 12.5h-51c-4.136 0-7.5-3.364-7.5-7.5 0-4.143-3.358-7.5-7.5-7.5s-7.5 3.357-7.5 7.5c0 12.406 10.093 22.5 22.5 22.5h20.125v11c0 4.143 3.358 7.5 7.5 7.5 4.143 0 7.5-3.357 7.5-7.5v-11h15.875c15 0 26.75-12.079 26.75-27.5v-21c0-15.421-11.75-27.5-26.75-27.5h-46c-7.059 0-13.25-5.841-13.25-12.5v-23c0-6.659 6.191-12.5 13.25-12.5h51c4.136 0 7.5 3.364 7.5 7.5 0 4.143 3.357 7.5 7.5 7.5s7.5-3.357 7.5-7.5c0-12.406-10.094-22.5-22.5-22.5h-20.875v-11c0-4.143-3.357-7.5-7.5-7.5-4.142 0-7.5 3.357-7.5 7.5v11h-15.125c-15.313 0-28.25 12.594-28.25 27.5v23c0 14.906 12.937 27.5 28.25 27.5z"/></svg>