<?xml version="1.0" encoding="UTF-8"?>
<svg xmlns="http://www.w3.org/2000/svg" xmlns:xlink="http://www.w3.org/1999/xlink" xmlns:svgjs="http://svgjs.com/svgjs" version="1.1" width="512" height="512" x="0" y="0" viewBox="0 0 512 512" style="enable-background:new 0 0 512 512" xml:space="preserve" class="">
  <g>
<path xmlns="http://www.w3.org/2000/svg" style="" d="M512,256c0,25.924-3.856,50.949-11.024,74.522c-18.84,62.025-60.594,114.082-115.409,146.307  C347.564,499.179,303.282,512,256,512c-82.505,0-155.899-39.027-202.71-99.631c-24.294-31.441-41.42-68.692-48.964-109.307  c-2.748-14.775-4.221-30.009-4.315-45.558C0,257.003,0,256.502,0,256c0-35.255,7.126-68.848,20.02-99.401  c7.011-16.635,15.726-32.371,25.934-46.989c2.372-3.385,4.817-6.719,7.335-9.979C100.101,39.027,173.495,0,256,0  c47.282,0,91.564,12.821,129.567,35.171c15.924,9.362,30.741,20.396,44.22,32.872c8.944,8.265,17.303,17.168,24.994,26.645  c6.875,8.443,13.208,17.345,18.975,26.645c15.026,24.242,26.122,51.19,32.371,79.935c0.178,0.815,0.355,1.63,0.522,2.445  C510.161,220.588,512,238.08,512,256z" fill="#f9eed7" data-original="#f9eed7"/>
<g xmlns="http://www.w3.org/2000/svg">
	<path style="" d="M454.781,94.689h-61.398c-3.678,0-7.011-1.494-9.425-3.897c-2.403-2.414-3.897-5.747-3.897-9.425   c0-7.356,5.956-13.322,13.322-13.322h36.404C438.732,76.309,447.091,85.211,454.781,94.689z" fill="#fcf8f2" data-original="#fcf8f2" class=""/>
	<path style="" d="M506.128,201.268h-97.207c-3.678,0-7.011-1.494-9.415-3.897c-2.414-2.414-3.908-5.747-3.908-9.425   c0-7.356,5.966-13.322,13.322-13.322h40.5c3.678,0,7.011-1.494,9.415-3.897c2.414-2.414,3.908-5.747,3.908-9.425   c0-7.356-5.966-13.322-13.322-13.322h-11.306c-3.678,0-7.011-1.494-9.415-3.897c-2.414-2.414-3.908-5.747-3.908-9.425   c0-7.356,5.966-13.322,13.322-13.322h35.641C488.782,145.575,499.879,172.523,506.128,201.268z" fill="#fcf8f2" data-original="#fcf8f2" class=""/>
	<path style="" d="M150.141,149.588c0,7.356-5.966,13.322-13.322,13.322H31.347c-3.678,0-7.011-1.494-9.425-3.908   c-0.721-0.721-1.358-1.526-1.902-2.403c7.011-16.635,15.726-32.371,25.934-46.989h64.219c7.356,0,13.322,5.966,13.322,13.322v0.01   c0,3.678,1.494,7.011,3.897,9.415c2.414,2.414,5.747,3.908,9.425,3.908c3.678,0,7.011,1.484,9.425,3.897   C148.647,142.576,150.141,145.899,150.141,149.588z" fill="#fcf8f2" data-original="#fcf8f2" class=""/>
</g>
<path xmlns="http://www.w3.org/2000/svg" style="" d="M512,256c0,94.104-50.772,176.347-126.433,220.829C347.564,499.179,303.282,512,256,512  c-82.505,0-155.899-39.027-202.71-99.631C20.156,369.486,0.345,315.799,0.01,257.505h6.447c2.529,0,4.577-2.048,4.577-4.577V235.28  c0-2.529,2.048-4.577,4.577-4.577h28.118c2.529,0,4.577-2.048,4.577-4.577V200.62c0-2.518,2.048-4.577,4.577-4.577h13.73  c2.529,0,4.577,2.058,4.577,4.577v45.767c0,2.529,2.048,4.577,4.577,4.577h9.801c2.529,0,4.577-2.048,4.577-4.577V235.28  c0-2.529,2.048-4.577,4.577-4.577h20.929c2.529,0,4.577,2.048,4.577,4.577v2.612c0,2.529,2.048,4.577,4.577,4.577h7.189  c2.529,0,4.577,2.048,4.577,4.577v3.918c0,2.529,2.048,4.577,4.577,4.577h13.73c2.529,0,4.577-2.048,4.577-4.577v-27.46  c0-2.518,2.048-4.577,4.577-4.577h11.766c2.529,0,4.577-2.048,4.577-4.577v-6.531c0-2.529,2.048-4.577,4.577-4.577h3.929  c2.529,0,4.577,2.048,4.577,4.577v7.189c0,2.56,2.09,4.618,4.66,4.577c2.497-0.052,4.493,2.079,4.493,4.577v7.847  c0,2.529,2.048,4.577,4.577,4.577h9.801c2.529,0,4.577,2.048,4.577,4.577v9.801c0,2.529,2.048,4.577,4.577,4.577h18.965  c2.529,0,4.577-2.048,4.577-4.577V214.35c0-2.518,2.048-4.577,4.577-4.577h5.224c2.529,0,4.577,2.058,4.577,4.577v38.045  c0,2.821,2.299,5.11,5.12,5.11h10.021c2.821,0,5.12-2.288,5.12-5.11v-32.152c0-2.529,2.048-4.577,4.577-4.577h13.73  c2.518,0,4.577,2.048,4.577,4.577v32.684c0,2.529,2.048,4.577,4.577,4.577h10.459c2.529,0,4.577-2.048,4.577-4.577V235.28  c0-2.529,2.048-4.577,4.577-4.577h28.108c2.529,0,4.577-2.048,4.577-4.577V200.62c0-2.518,2.048-4.577,4.577-4.577h13.73  c2.529,0,4.577,2.058,4.577,4.577v45.767c0,2.529,2.048,4.577,4.577,4.577h9.812c2.529,0,4.577-2.048,4.577-4.577V235.28  c0-2.529,2.048-4.577,4.577-4.577h20.919c2.529,0,4.577,2.048,4.577,4.577v2.612c0,2.529,2.048,4.577,4.577,4.577h7.189  c2.529,0,4.577,2.048,4.577,4.577v3.918c0,2.529,2.058,4.577,4.577,4.577h13.73c2.529,0,4.577-2.048,4.577-4.577v-27.46  c0-2.518,2.058-4.577,4.577-4.577h11.776c2.529,0,4.577-2.048,4.577-4.577v-6.531c0-2.529,2.048-4.577,4.577-4.577h3.918  c0.721,0,1.4,0.167,2.006,0.47C510.161,220.588,512,238.08,512,256z" fill="#e8dbc4" data-original="#e8dbc4"/>
<path xmlns="http://www.w3.org/2000/svg" style="" d="M500.976,329.32v1.202c-18.84,62.025-60.594,114.082-115.409,146.307  C347.564,499.179,303.282,512,256,512c-82.505,0-155.899-39.027-202.71-99.631c-24.294-31.441-41.42-68.692-48.964-109.307  c0.324-1.776,0.669-3.542,1.034-5.308c0.606-0.303,1.285-0.47,2.006-0.47h3.918c2.529,0,4.577,2.048,4.577,4.577v6.531  c0,2.529,2.048,4.577,4.577,4.577h11.776c2.518,0,4.577,2.058,4.577,4.577v27.46c0,2.529,2.048,4.577,4.577,4.577h13.73  c2.518,0,4.577-2.048,4.577-4.577v-3.918c0-2.529,2.048-4.577,4.577-4.577h7.189c2.529,0,4.577-2.048,4.577-4.577v-2.612  c0-2.529,2.048-4.577,4.577-4.577h20.919c2.529,0,4.577,2.048,4.577,4.577v11.107c0,2.529,2.048,4.577,4.577,4.577h9.812  c2.529,0,4.577-2.048,4.577-4.577v-45.767c0-2.518,2.048-4.577,4.577-4.577h13.73c2.529,0,4.577,2.058,4.577,4.577v25.506  c0,2.529,2.048,4.577,4.577,4.577h28.108c2.529,0,4.577,2.048,4.577,4.577v17.648c0,2.529,2.048,4.577,4.577,4.577h10.459  c2.529,0,4.577-2.048,4.577-4.577v-32.684c0-2.529,2.058-4.577,4.577-4.577h13.73c2.529,0,4.577,2.048,4.577,4.577v32.151  c0,2.821,2.299,5.11,5.12,5.11h10.021c2.821,0,5.12-2.288,5.12-5.11v-38.045c0-2.518,2.048-4.577,4.577-4.577h5.224  c2.529,0,4.577,2.058,4.577,4.577v36.613c0,2.529,2.048,4.577,4.577,4.577h18.965c2.529,0,4.577-2.048,4.577-4.577v-9.801  c0-2.529,2.048-4.577,4.577-4.577h9.801c2.529,0,4.577-2.048,4.577-4.577v-7.847c0-2.497,1.996-4.629,4.493-4.577  c2.57,0.042,4.66-2.017,4.66-4.577v-7.189c0-2.529,2.048-4.577,4.577-4.577h3.929c2.529,0,4.577,2.048,4.577,4.577v6.531  c0,2.529,2.048,4.577,4.577,4.577h11.766c2.529,0,4.577,2.058,4.577,4.577v27.46c0,2.529,2.048,4.577,4.577,4.577h13.73  c2.529,0,4.577-2.048,4.577-4.577v-3.918c0-2.529,2.048-4.577,4.577-4.577h7.189c2.529,0,4.577-2.048,4.577-4.577v-2.612  c0-2.529,2.048-4.577,4.577-4.577h20.929c2.529,0,4.577,2.048,4.577,4.577v11.107c0,2.529,2.048,4.577,4.577,4.577h9.801  c2.529,0,4.577-2.048,4.577-4.577v-45.766c0-2.518,2.048-4.577,4.577-4.577h13.73c2.529,0,4.577,2.058,4.577,4.577v25.506  c0,2.529,2.048,4.577,4.577,4.577H496.4C498.928,324.744,500.976,326.792,500.976,329.32z" fill="#d6c8b0" data-original="#d6c8b0"/>
<path xmlns="http://www.w3.org/2000/svg" style="" d="M385.567,24.179v452.65C347.564,499.179,303.282,512,256,512c-82.505,0-155.899-39.027-202.71-99.631  V24.179C53.29,10.825,64.115,0,77.469,0h283.92C374.742,0,385.567,10.825,385.567,24.179z" fill="#0046b8" data-original="#34abe0" class=""/>
<path xmlns="http://www.w3.org/2000/svg" style="" d="M324.251,240.261H114.606c-8.472,0-15.341-6.868-15.341-15.341V67.868  c0-8.472,6.868-15.341,15.341-15.341h209.645c8.472,0,15.341,6.868,15.341,15.341V224.92  C339.592,233.392,332.724,240.261,324.251,240.261z" fill="#0a3e92" data-original="#279fc9" class=""/>
<path xmlns="http://www.w3.org/2000/svg" style="" d="M251.073,73.425H131.359c-6.76,0-12.241,5.48-12.241,12.241v83.143c0,6.76,5.48,12.241,12.241,12.241  h119.714c6.76,0,12.241-5.48,12.241-12.241V85.666C263.314,78.905,257.834,73.425,251.073,73.425z" fill="#5c5e70" data-original="#5c5e70"/>
<path xmlns="http://www.w3.org/2000/svg" style="" d="M324.702,120.445h-47.02c-4.761,0-8.62-3.86-8.62-8.62V86.747c0-4.761,3.86-8.62,8.62-8.62h47.02  c4.761,0,8.62,3.86,8.62,8.62v25.078C333.322,116.586,329.463,120.445,324.702,120.445z" fill="#ffd15c" data-original="#ffd15c"/>
<path xmlns="http://www.w3.org/2000/svg" style="" d="M318.955,107.907h-35.527c-4.761,0-8.62-3.86-8.62-8.62l0,0c0-4.761,3.86-8.62,8.62-8.62h35.527  c4.761,0,8.62,3.86,8.62,8.62l0,0C327.576,104.047,323.716,107.907,318.955,107.907z" fill="#5c5e70" data-original="#5c5e70"/>
<g xmlns="http://www.w3.org/2000/svg">
	<path style="" d="M142.373,186.622h-17.6c-3.123,0-5.654,2.532-5.654,5.654v6.802c0,3.123,2.532,5.654,5.654,5.654   h17.6c3.123,0,5.654-2.532,5.654-5.654v-6.802C148.028,189.154,145.496,186.622,142.373,186.622z" fill="#e8dbc4" data-original="#e8dbc4"/>
	<path style="" d="M219.231,186.622h-17.6c-3.123,0-5.654,2.532-5.654,5.654v6.802c0,3.123,2.532,5.654,5.654,5.654   h17.6c3.123,0,5.654-2.532,5.654-5.654v-6.802C224.885,189.154,222.353,186.622,219.231,186.622z" fill="#e8dbc4" data-original="#e8dbc4"/>
	<path style="" d="M180.802,186.622h-17.6c-3.123,0-5.654,2.532-5.654,5.654v6.802c0,3.123,2.532,5.654,5.654,5.654   h17.6c3.123,0,5.654-2.532,5.654-5.654v-6.802C186.456,189.154,183.925,186.622,180.802,186.622z" fill="#e8dbc4" data-original="#e8dbc4"/>
	<path style="" d="M257.66,186.622h-17.6c-3.123,0-5.654,2.532-5.654,5.654v6.802c0,3.123,2.532,5.654,5.654,5.654   h17.6c3.123,0,5.654-2.532,5.654-5.654v-6.802C263.314,189.154,260.782,186.622,257.66,186.622z" fill="#e8dbc4" data-original="#e8dbc4"/>
	<path style="" d="M142.373,210.307h-17.6c-3.123,0-5.654,2.532-5.654,5.654v6.802c0,3.123,2.532,5.654,5.654,5.654   h17.6c3.123,0,5.654-2.532,5.654-5.654v-6.802C148.028,212.838,145.496,210.307,142.373,210.307z" fill="#e8dbc4" data-original="#e8dbc4"/>
	<path style="" d="M219.231,210.307h-17.6c-3.123,0-5.654,2.532-5.654,5.654v6.802c0,3.123,2.532,5.654,5.654,5.654   h17.6c3.123,0,5.654-2.532,5.654-5.654v-6.802C224.885,212.838,222.353,210.307,219.231,210.307z" fill="#e8dbc4" data-original="#e8dbc4"/>
	<path style="" d="M180.802,210.307h-17.6c-3.123,0-5.654,2.532-5.654,5.654v6.802c0,3.123,2.532,5.654,5.654,5.654   h17.6c3.123,0,5.654-2.532,5.654-5.654v-6.802C186.456,212.838,183.925,210.307,180.802,210.307z" fill="#e8dbc4" data-original="#e8dbc4"/>
	<path style="" d="M257.66,210.307h-17.6c-3.123,0-5.654,2.532-5.654,5.654v6.802c0,3.123,2.532,5.654,5.654,5.654   h17.6c3.123,0,5.654-2.532,5.654-5.654v-6.802C263.314,212.838,260.782,210.307,257.66,210.307z" fill="#e8dbc4" data-original="#e8dbc4"/>
</g>
<path xmlns="http://www.w3.org/2000/svg" style="" d="M248.132,87.009h-14.218c-3.576,0-6.475,2.899-6.475,6.475v67.159c0,3.576,2.899,6.475,6.475,6.475  h14.218c3.576,0,6.475-2.899,6.475-6.475V93.484C254.607,89.907,251.708,87.009,248.132,87.009z" fill="#797b89" data-original="#797b89"/>
<g xmlns="http://www.w3.org/2000/svg">
	<path style="" d="M143.001,354.17c0-0.222,0.111-0.665,0.222-1.108l21.389-69.706   c0.997-3.324,5.097-4.877,9.198-4.877c4.211,0,8.311,1.552,9.309,4.877l21.389,69.706c0.111,0.443,0.222,0.776,0.222,1.108   c0,3.436-5.209,5.984-9.087,5.984c-2.438,0-4.322-0.776-4.877-2.881l-4.21-14.739h-25.38l-4.211,14.739   c-0.554,2.105-2.438,2.881-4.877,2.881C148.208,360.155,143.001,357.717,143.001,354.17z M183.451,331.231l-9.641-34.022   l-9.641,34.022H183.451z" fill="#ffd15c" data-original="#ffd15c"/>
	<path style="" d="M257.476,279.144c3.103,0,4.543,3.324,4.543,6.427c0,3.436-1.662,6.539-4.543,6.539h-16.18v63.501   c0,2.993-3.657,4.543-7.204,4.543c-3.657,0-7.204-1.551-7.204-4.543v-63.501h-16.29c-2.881,0-4.543-2.993-4.543-6.539   c0-3.103,1.44-6.427,4.543-6.427H257.476z" fill="#ffd15c" data-original="#ffd15c"/>
	<path style="" d="M312.22,331.009c-1.219,2.217-3.103,2.881-4.877,2.881c-1.773,0-3.546-0.665-4.766-2.881   l-12.745-23.936v48.54c0,2.993-3.656,4.543-7.202,4.543c-3.657,0-7.204-1.551-7.204-4.543v-69.263c0-5.32,3.546-7.204,7.204-7.204   c5.209,0,7.536,1.108,11.193,7.647l13.631,24.824l13.63-24.824c3.657-6.539,6.096-7.647,11.304-7.647   c3.657,0,7.204,1.884,7.204,7.204v69.263c0,2.993-3.657,4.543-7.204,4.543c-3.656,0-7.202-1.551-7.202-4.543v-47.654   L312.22,331.009z" fill="#ffd15c" data-original="#ffd15c"/>
</g>
<path xmlns="http://www.w3.org/2000/svg" style="" d="M360.533,34.764H251.778c-4.593,0-8.316-3.723-8.316-8.316v-8.445c0-4.593,3.723-8.316,8.316-8.316  h108.755c4.593,0,8.316,3.723,8.316,8.316v8.445C368.849,31.041,365.126,34.764,360.533,34.764z" fill="#316dce" data-original="#78caef" class=""/>
<g xmlns="http://www.w3.org/2000/svg">
</g>
<g xmlns="http://www.w3.org/2000/svg">
</g>
<g xmlns="http://www.w3.org/2000/svg">
</g>
<g xmlns="http://www.w3.org/2000/svg">
</g>
<g xmlns="http://www.w3.org/2000/svg">
</g>
<g xmlns="http://www.w3.org/2000/svg">
</g>
<g xmlns="http://www.w3.org/2000/svg">
</g>
<g xmlns="http://www.w3.org/2000/svg">
</g>
<g xmlns="http://www.w3.org/2000/svg">
</g>
<g xmlns="http://www.w3.org/2000/svg">
</g>
<g xmlns="http://www.w3.org/2000/svg">
</g>
<g xmlns="http://www.w3.org/2000/svg">
</g>
<g xmlns="http://www.w3.org/2000/svg">
</g>
<g xmlns="http://www.w3.org/2000/svg">
</g>
<g xmlns="http://www.w3.org/2000/svg">
</g>
</g>
</svg>
