<svg id="Layer_1" enable-background="new 0 0 511 511" height="512" viewBox="0 0 511 511" width="512" xmlns="http://www.w3.org/2000/svg"><g><g><path d="m256 .5c-98.131 0-158.58 55.352-158.747 55.445 0 0-2.513 3.137-2.983 5.222-3.818 16.948-7.385 39.663-7.385 56.239 0 13.203 1.044 26.171 3.052 38.833 27.208 171.568 245.592 229.425 356.082 95.38l55.059-66.797c-30.644-106.451-128.767-184.322-245.078-184.322z" fill="#afe6ff"/></g><g fill="#fff"><path d="m169.46 285.13c0-.21.07-.49.14-.771l13.021-42.704c.77-2.45 3.92-3.641 7.141-3.641s6.371 1.19 7.141 3.641l13.092 42.704c.07.28.14.561.14.771 0 2.59-3.99 4.48-7 4.48-1.75 0-3.15-.56-3.57-2.03l-2.38-8.751h-14.771l-2.38 8.751c-.42 1.471-1.82 2.03-3.57 2.03-3.013 0-7.004-1.89-7.004-4.48zm25.413-14.701-5.111-18.763-5.11 18.763z"/><path d="m240.094 238.435c2.31 0 3.29 2.521 3.29 4.831 0 2.66-1.19 4.971-3.29 4.971h-9.661v38.014c0 2.24-2.73 3.36-5.46 3.36s-5.461-1.12-5.461-3.36v-38.014h-9.661c-2.101 0-3.291-2.311-3.291-4.971 0-2.311.98-4.831 3.291-4.831z"/><path d="m272.363 271.479c-.91 1.54-2.31 2.03-3.64 2.03-1.26 0-2.59-.42-3.431-2.03l-6.65-12.182v26.953c0 2.24-2.73 3.36-5.46 3.36s-5.461-1.12-5.461-3.36v-42.354c0-3.99 2.73-5.461 5.461-5.461 3.92 0 5.601.421 8.471 5.461l7.211 12.602 7.21-12.602c2.871-5.04 4.55-5.461 8.471-5.461 2.8 0 5.46 1.471 5.46 5.461v42.354c0 2.24-2.73 3.36-5.46 3.36s-5.461-1.12-5.461-3.36v-26.253z"/></g><g><path d="m408.767 80.42c-1.845-18.534-17.482-33.008-36.502-33.008-4.206 0-8.243.717-12.005 2.02-8.963-14.335-24.88-23.878-43.034-23.878-20.562 0-38.263 12.236-46.227 29.823-2.748 6.069-8.963 9.948-15.604 9.411-1.254-.101-2.529-.124-3.822-.064-14.905.693-27.142 12.701-28.092 27.592-1.098 17.205 12.532 31.502 29.501 31.502 5.459 0 10.571-1.481 14.958-4.062 7.258-4.271 16.327-4.017 23.581.26 7.536 4.443 16.321 6.994 25.704 6.994 9.928 0 19.187-2.855 27.006-7.785 4.128-2.603 9.267-3.232 13.76-1.329 4.386 1.858 9.208 2.888 14.273 2.888 4.498 0 8.807-.81 12.789-2.292 3.747-1.395 7.943-1.145 11.521.64 3.061 1.527 6.556 2.313 10.253 2.118 10.076-.532 18.434-8.539 19.355-18.586 1.024-11.17-6.899-20.675-17.415-22.244z" fill="#e1faff"/></g><g><g><path d="m18.973 102.902h141.358v77.355h-141.358z" fill="#fff"/></g><g><path d="m55.925 146.571v-43.669h-38.952v77.355h143.357v-33.686z" fill="#f5f0f0"/></g><g><path d="m55.605 167.318v245.883c6.23 7.906 12.918 15.434 20.023 22.545l16.22.384 10.526 22.914c6.342 4.795 12.915 9.299 19.699 13.495 17.032 10.533 54.782 5.439 54.782 5.439v-310.66z" fill="#fff"/></g><g><path d="m55.239 167.318h-38.573c-10.132 27.48-15.666 57.185-15.666 88.182 0 42.028 10.167 81.681 28.177 116.633 7.413 14.387 16.154-.024 26.062 12.608z" fill="#f5f0f0"/></g><g><path d="m0 76.282h177.508v31.078h-177.508z" fill="#fff"/></g><g><path d="m0 76.282h69.468v31.078h-69.468z" fill="#f5f0f0"/></g><g><path d="m29.177 229.465v142.668c7.583 14.718 16.557 28.603 26.748 41.481v-184.149z" fill="#a5a0aa"/></g><g><path d="m75.625 229.465v206.284c8.359 8.365 17.297 16.152 26.748 23.297v-229.581z" fill="#a5a0aa"/></g><g><path d="m122.073 229.465v243.075c8.59 5.312 17.52 10.129 26.748 14.409v-257.484z" fill="#a5a0aa"/></g><g><path d="m29.177 216.431h26.748v14.18h-26.748z" fill="#828291"/></g><g><path d="m75.625 216.431h26.748v14.18h-26.748z" fill="#828291"/></g><g><path d="m122.073 216.431h26.748v14.18h-26.748z" fill="#828291"/></g><g><path d="m45.156 124.791h19.603v53.139h-19.603z" fill="#a5a0aa"/></g><g><path d="m79.197 124.791h19.603v53.139h-19.603z" fill="#a5a0aa"/></g><g><path d="m113.238 124.791h19.603v53.139h-19.603z" fill="#a5a0aa"/></g><g><path d="m45.156 118.167h19.603v8.842h-19.603z" fill="#828291"/></g><g><path d="m79.197 118.167h19.603v8.842h-19.603z" fill="#828291"/></g><g><path d="m113.238 118.167h19.603v8.842h-19.603z" fill="#828291"/></g><g><path d="m8.031 195.796h189.958v-31.078h-180.348c-3.838 10.069-7.057 20.444-9.61 31.078z" fill="#fff"/></g><g><path d="m36.467 2.687h19.458v73.595h-19.458z" fill="#f5f0f0"/></g><g><path d="m36.467 65.948h19.458v10.334h-19.458z" fill="#e6dcdc"/></g><g><path d="m69.468 39.485h26.4v36.797h-26.4z" fill="#f5f0f0"/></g><g><path d="m69.468 65.948h26.4v10.334h-26.4z" fill="#e6dcdc"/></g></g><g><g><path d="m466.632 399.272c18.174-26.572 31.48-56.821 38.567-89.534.178-1.087 5.8-23.477 5.8-54.239 0-24.522-3.461-48.235-9.922-70.678h-112.335v214.45h77.89z" fill="#ffa50a"/></g><g><path d="m436.598 435.519h-47.411v-250.697h-76.205v319.267c47.515-10.868 90.17-35.041 123.616-68.57z" fill="#fa870a"/></g><g><g><path d="m336.113 252.668h150.521v12.128h-150.521z" fill="#fa870a"/></g><g><path d="m336.113 226.067h150.521v30.01h-150.521z" fill="#ffe65a"/></g></g><g><g><path d="m336.113 310.067h150.521v12.128h-150.521z" fill="#fa870a"/></g><g><path d="m336.113 283.465h150.521v30.01h-150.521z" fill="#ffe65a"/></g></g><g><g><path d="m485.166 367.466h-149.053v12.128h142.71c2.219-3.977 4.334-8.021 6.343-12.128z" fill="#fa870a"/></g></g><g><g><path d="m336.113 424.865v12.128h99.002c3.969-3.914 7.811-7.959 11.52-12.128z" fill="#fa690f"/></g><g><path d="m388.302 226.066h98.333v30.01h-98.333z" fill="#ffe65a"/></g><g><path d="m388.302 283.465h98.333v30.01h-98.333z" fill="#ffe65a"/></g><g><path d="m388.302 340.864v30.01h95.165c1.085-2.137 2.141-4.292 3.168-6.464v-23.546z" fill="#ffe65a"/></g><g><path d="m388.302 398.263v30.01h55.247c8.643-9.372 16.597-19.401 23.778-30.01z" fill="#ffe65a"/></g></g><g><g><path d="m336.113 398.263h53.074v30.01h-53.074z" fill="#ffd23c"/></g><g><path d="m336.113 226.067h53.074v30.01h-53.074z" fill="#ffd23c"/></g><g><path d="m336.113 283.465h53.074v30.01h-53.074z" fill="#ffd23c"/></g><g><path d="m336.113 340.864h53.074v30.01h-53.074z" fill="#ffd23c"/></g><g><path d="m336.113 398.263h53.074v30.01h-53.074z" fill="#ffd23c"/></g></g><g><path d="m394.6 155.844h92.035v28.978h-92.035z" fill="#fa870a"/></g><g><path d="m339.767 155.844h57v28.978h-57z" fill="#fa690f"/></g></g><g><path d="m148.821 486.949c32.584 15.115 68.896 23.551 107.179 23.551 19.552 0 38.629-2.213 56.982-6.411v-214.479h-164.161z" fill="#2477f9"/></g><g><path d="m238.154 477.011c-.407 0-.813-.009-1.215-.028-11.39-.53-10.785-17.688.617-17.688h36.556c6.375 0 11.543-5.168 11.543-11.543v-85.712c0-6.375-5.168-11.543-11.543-11.543h-61.66v-60.886h-63.631v197.339c32.584 15.114 68.896 23.55 107.179 23.55 19.552 0 38.629-2.213 56.982-6.411v-27.077h-74.828z" fill="#0360e8"/></g><g><path d="m274.111 448.294h-85.713c-6.375 0-11.543-5.168-11.543-11.543v-85.713c0-6.375 5.168-11.543 11.543-11.543h85.713c6.375 0 11.543 5.168 11.543 11.543v85.713c0 6.376-5.168 11.543-11.543 11.543z" fill="#1e2d64"/></g><g><path d="m230.229 398.263h-32.786c-2.653 0-4.804-2.151-4.804-4.804v-32.786c0-2.653 2.151-4.804 4.804-4.804h32.786c2.653 0 4.804 2.151 4.804 4.804v32.786c0 2.653-2.151 4.804-4.804 4.804z" fill="#05cdff"/></g><g><path d="m214.888 388.663c-2.653 0-4.804-2.151-4.804-4.804v-27.99h-12.641c-2.653 0-4.804 2.151-4.804 4.804v32.786c0 2.653 2.151 4.804 4.804 4.804h32.786c2.653 0 4.804-2.151 4.804-4.804v-4.796z" fill="#00ace8"/></g><g><path d="m192.639 414.864h77.284v12h-77.284z" fill="#f5f0f0"/></g><g><path d="m192.639 414.864h31.281v12h-31.281z" fill="#e6dcdc"/></g><g><path d="m244.455 355.869h8.592v42.394h-8.592z" fill="#827ddc"/></g><g><path d="m261.331 355.869h8.592v42.394h-8.592z" fill="#827ddc"/></g></g></svg>