<?xml version="1.0" encoding="UTF-8"?>
<svg xmlns="http://www.w3.org/2000/svg" xmlns:xlink="http://www.w3.org/1999/xlink" xmlns:svgjs="http://svgjs.com/svgjs" version="1.1" width="512" height="512" x="0" y="0" viewBox="0 0 512 512" style="enable-background:new 0 0 512 512" xml:space="preserve" class="">
  <g>
    <g xmlns="http://www.w3.org/2000/svg">
      <path d="m512 256c0 128.125-94.125 234.266-217 253.048-3.772.577-8.559-4.756-12.383-4.346-9.069.972-14.503.727-23.83.727-78.451 0-148.661-35.289-195.62-90.859-1.829-2.164-6.41 2.211-8.167-.014-34.442-43.601-55-98.678-55-158.556 0-141.385 114.615-256 256-256s256 114.615 256 256z" fill="#1e91d0" data-original="#00a4fb" class=""/>
      <path d="m475.176 223.804c0 111.268-90.2 201.468-201.468 201.468s-201.468-90.201-201.468-201.468c0-111.268 90.2-201.468 201.468-201.468 111.267 0 201.468 90.2 201.468 201.468z" fill="#34a4e1" data-original="#49b6fc" class=""/>
      <path d="m310 120v198c0 15.217-5.665 29.11-15 39.687v151.361c-12.716 1.944-25.74 2.952-39 2.952-58.119 0-111.714-19.367-154.684-52-1.167-.886-.612-3.499-1.763-4.404-5.031-3.958-9.911-8.101-14.628-12.418-.988-.904-22.18-18.814-29.925-28.62v-56.87c-9.335-10.578-15-24.471-15-39.688v-198c0-16.569 13.431-30 30-30h210c16.569 0 30 13.431 30 30z" fill="#0046b8" data-original="#00429c" class=""/>
      <path d="m126.424 90c-16.568 0-30 13.431-30 30v320.489c-4.513-3.602-15.164 2.604-16.155 1.668-9.075-8.569-17.523-17.795-25.269-27.601v-56.87c-9.335-10.576-15-24.469-15-39.686v-198c0-16.569 13.431-30 30-30z" fill="#003da0" data-original="#003278" class=""/>
      <path d="m130 345c0 8.284-6.716 15-15 15h-20c-8.284 0-15-6.716-15-15s6.716-15 15-15h20c8.284 0 15 6.716 15 15zm55 35h-20c-8.284 0-15 6.716-15 15s6.716 15 15 15h20c8.284 0 15-6.716 15-15s-6.716-15-15-15zm0-50h-20c-8.284 0-15 6.716-15 15s6.716 15 15 15h20c8.284 0 15-6.716 15-15s-6.716-15-15-15zm0 100h-20c-8.284 0-15 6.716-15 15s6.716 15 15 15h20c8.284 0 15-6.716 15-15s-6.716-15-15-15zm-70-50h-20c-8.284 0-15 6.716-15 15s6.716 15 15 15h20c8.284 0 15-6.716 15-15s-6.716-15-15-15zm0 50h-20c-7.313 0-13.403 5.233-14.731 12.158 6.686 6.314 13.712 12.271 21.047 17.842h13.684c8.284 0 15-6.716 15-15s-6.716-15-15-15zm140-50h-20c-8.284 0-15 6.716-15 15s6.716 15 15 15h20c8.284 0 15-6.716 15-15s-6.716-15-15-15zm-20-20h20c8.284 0 15-6.716 15-15s-6.716-15-15-15h-20c-8.284 0-15 6.716-15 15s6.716 15 15 15zm20 70h-20c-8.284 0-15 6.716-15 15s6.716 15 15 15h20c8.284 0 15-6.716 15-15s-6.716-15-15-15z" fill="#0077f0" data-original="#0077f0" class=""/>
      <path d="m130 395c0 8.284-6.716 15-15 15h-2.298c-8.284 0-15-6.716-15-15s6.716-15 15-15h2.298c8.284 0 15 6.716 15 15zm55-15h-2.298c-8.284 0-15 6.716-15 15s6.716 15 15 15h2.298c8.284 0 15-6.716 15-15s-6.716-15-15-15zm0-50h-2.298c-8.284 0-15 6.716-15 15s6.716 15 15 15h2.298c8.284 0 15-6.716 15-15s-6.716-15-15-15zm67.702 30h2.298c8.284 0 15-6.716 15-15s-6.716-15-15-15h-2.298c-8.284 0-15 6.716-15 15s6.716 15 15 15zm2.298 20h-2.298c-8.284 0-15 6.716-15 15s6.716 15 15 15h2.298c8.284 0 15-6.716 15-15s-6.716-15-15-15zm-70 50h-2.298c-8.284 0-15 6.716-15 15s6.716 15 15 15h2.298c8.284 0 15-6.716 15-15s-6.716-15-15-15zm70 0h-2.298c-8.284 0-15 6.716-15 15s6.716 15 15 15h2.298c8.284 0 15-6.716 15-15s-6.716-15-15-15zm-140-100h-2.298c-8.284 0-15 6.716-15 15s6.716 15 15 15h2.298c8.284 0 15-6.716 15-15s-6.716-15-15-15zm0 100h-2.298c-8.284 0-15 6.716-15 15s6.716 15 15 15h2.298c8.284 0 15-6.716 15-15s-6.716-15-15-15z" fill="#0396fd" data-original="#0396fd" class=""/>
      <path d="m280 185v90c0 8.284-6.716 15-15 15h-180c-8.284 0-15-6.716-15-15v-90c0-8.284 6.716-15 15-15h180c8.284 0 15 6.716 15 15z" fill="#a3e72d" data-original="#a3e72d" class=""/>
      <path d="m111.424 290h-26.424c-8.284 0-15-6.716-15-15v-90c0-8.284 6.716-15 15-15h26.424c-8.284 0-15 6.716-15 15v90c0 8.284 6.716 15 15 15z" fill="#80cf00" data-original="#80cf00" class=""/>
      <path d="m205.833 128c0 5.523-4.477 10-10 10h-12.5c-5.523 0-10-4.477-10-10s4.477-10 10-10h12.5c5.523 0 10 4.477 10 10z" fill="#a3e72d" data-original="#a3e72d" class=""/>
      <path d="m154.167 128c0 5.523-4.477 10-10 10h-12.5c-5.523 0-10-4.477-10-10s4.477-10 10-10h12.5c5.522 0 10 4.477 10 10zm-61.667-10h-12.5c-5.523 0-10 4.477-10 10s4.477 10 10 10h12.5c5.523 0 10-4.477 10-10s-4.477-10-10-10z" fill="#ffb509" data-original="#ffb509" class=""/>
      <path d="m106.171 223.804c0 5.994-2.413 11.616-6.794 15.831-1.455 1.399-3.328 2.094-5.198 2.094-1.969 0-3.935-.77-5.406-2.301-2.872-2.986-2.779-7.733.206-10.605 1.414-1.36 2.192-3.142 2.192-5.019 0-1.876-.778-3.659-2.192-5.018-2.985-2.871-3.078-7.619-.207-10.604 2.872-2.985 7.618-3.079 10.605-.207 4.381 4.213 6.794 9.835 6.794 15.829zm14.884-36.679c-2.987-2.872-7.734-2.778-10.605.207s-2.778 7.733.207 10.604c7.209 6.933 11.18 16.12 11.18 25.867s-3.971 18.934-11.18 25.867c-2.985 2.871-3.078 7.619-.207 10.604 1.473 1.531 3.438 2.301 5.407 2.301 1.87 0 3.743-.695 5.198-2.094 10.177-9.787 15.781-22.813 15.781-36.679s-5.605-26.889-15.781-36.677zm21.677-20.848c-2.986-2.872-7.734-2.778-10.605.207s-2.778 7.733.207 10.604c13.005 12.506 20.166 29.097 20.166 46.716s-7.161 34.209-20.166 46.715c-2.985 2.871-3.078 7.619-.207 10.604 1.473 1.531 3.438 2.301 5.407 2.301 1.87 0 3.743-.695 5.198-2.094 15.972-15.36 24.768-35.791 24.768-57.527s-8.796-42.166-24.768-57.526z" fill="#ffffff" data-original="#ffffff" class=""/>
      <path d="m512 51.872v174.404c0 8.284-6.716 15-15 15h-294.159c-8.284 0-15-6.716-15-15v-174.404c0-8.284 6.716-15 15-15h294.159c8.284 0 15 6.716 15 15z" fill="#f5841f" data-original="#ff5757" class=""/>
      <path d="m245.837 241.277h-42.996c-8.284 0-15-6.716-15-15v-174.405c0-8.284 6.716-15 15-15h42.996c-8.284 0-15 6.716-15 15v174.404c0 8.285 6.716 15.001 15 15.001z" fill="#f97600" data-original="#ff4343" class=""/>
      <path d="m269.524 200c0 5.523-4.477 10-10 10h-29.524c-5.523 0-10-4.477-10-10s4.477-10 10-10h29.524c5.523 0 10 4.477 10 10zm60.159-10h-29.524c-5.523 0-10 4.477-10 10s4.477 10 10 10h29.524c5.523 0 10-4.477 10-10s-4.478-10-10-10zm70.158 0h-29.524c-5.523 0-10 4.477-10 10s4.477 10 10 10h29.524c5.523 0 10-4.477 10-10s-4.477-10-10-10zm70.159 0h-29.524c-5.523 0-10 4.477-10 10s4.477 10 10 10h29.524c5.523 0 10-4.477 10-10s-4.477-10-10-10z" fill="#ff9a9a" data-original="#ff9a9a" class=""/>
      <path d="m280 80v20c0 5.523-4.477 10-10 10h-40c-5.523 0-10-4.477-10-10v-20c0-5.523 4.477-10 10-10h40c5.523 0 10 4.477 10 10z" fill="#ffb509" data-original="#ffb509" class=""/>
      <path d="m280 80v20c0 5.523-4.477 10-10 10h-14.163c-5.523 0-10-4.477-10-10v-20c0-5.523 4.477-10 10-10h14.163c5.523 0 10 4.477 10 10z" fill="#ffc143" data-original="#ffc143" class=""/>
      <path d="m458.188 97.081c2.985-2.871 7.733-2.779 10.604.206 1.399 1.454 2.095 3.328 2.095 5.198 0 1.969-.77 3.934-2.301 5.406-1.414 1.36-2.193 3.143-2.192 5.02 0 1.877.778 3.658 2.192 5.018 2.985 2.871 3.079 7.619.207 10.605-2.871 2.985-7.619 3.078-10.604.207-4.381-4.214-6.794-9.835-6.794-15.829-.001-5.995 2.412-11.618 6.793-15.831zm-43.355-41.697c-15.972 15.359-24.768 35.79-24.768 57.526s8.796 42.167 24.768 57.526c2.985 2.872 7.733 2.779 10.604-.206 2.872-2.986 2.778-7.735-.207-10.604-13.003-12.507-20.165-29.097-20.165-46.716s7.162-34.209 20.165-46.716c1.531-1.472 2.301-3.438 2.301-5.406 0-1.87-.695-3.743-2.094-5.198-2.871-2.985-7.619-3.078-10.604-.206zm5.896 57.528c0 13.864 5.605 26.891 15.781 36.677 2.985 2.872 7.733 2.779 10.604-.206 1.399-1.455 2.094-3.328 2.094-5.198 0-1.969-.771-3.935-2.301-5.406-7.208-6.933-11.178-16.119-11.179-25.867 0-9.748 3.97-18.935 11.179-25.868 2.985-2.87 3.079-7.618.207-10.604-2.872-2.985-7.619-3.078-10.605-.206-10.176 9.785-15.78 22.811-15.78 36.678z" fill="#ffffff" data-original="#ffffff" class=""/>
    </g>
  </g>
</svg>
