<svg id="Capa_1" enable-background="new 0 0 512 512" height="512" viewBox="0 0 512 512" width="512" xmlns="http://www.w3.org/2000/svg"><g><path d="m10 459.714c-5.523 0-10 4.478-10 10s4.477 10 10 10h492c5.522 0 10-4.478 10-10s-4.478-10-10-10h-19.2v-54.024c0-5.522-4.478-10-10-10s-10 4.478-10 10v54.024h-273.581v-148.649c0-5.522-4.477-10-10-10h-88.144c-5.523 0-10 4.478-10 10v148.648h-31.875v-191.603c3.43.582 6.936.854 10.414.829 19.458-.133 37.953-10.156 48.786-26.302 10.913 16.263 29.599 26.313 49.2 26.313 19.588 0 38.306-10.048 49.2-26.313 10.948 16.248 29.571 26.313 49.2 26.313 19.6 0 38.292-10.052 49.2-26.313 10.417 15.528 27.961 25.453 46.658 26.248 20.481.87 40.327-9.235 51.742-26.248 12.888 19.211 36.375 29.344 59.2 25.473v49.753c0 5.522 4.478 10 10 10s10-4.478 10-10v-57.107c17.458-10.307 29.2-29.306 29.2-51.006v-52.195c0-16.134-12.15-30.341-28.109-32.811l-64.748-80.124c-6.333-7.839-15.745-12.334-25.823-12.334h-274.545c-10.162 0-19.624 4.558-25.96 12.504l-63.697 79.897c-15.855 2.291-28.835 16.245-29.118 32.281v33.913.087 18.782c0 21.7 11.743 40.698 29.2 51.006v198.958zm91.075-138.649h68.144v138.648h-68.144zm292.525-111.319c0 21.615-17.585 39.2-39.199 39.2-21.615 0-39.2-17.585-39.2-39.2v-8.778h78.399zm0-28.778h-78.4v-36.613h78.4zm98.4 28.782c0 21.34-17.868 39.196-39.2 39.196-21.615 0-39.2-17.585-39.2-39.2v-8.778h78.4zm0-52.195v23.413h-78.4v-36.613h65.2c7.278 0 13.2 5.921 13.2 13.2zm-98.681-105.269c4.007 0 7.749 1.787 10.267 4.903l54.276 67.165h-48.319l-39.22-72.068zm-45.766 0 39.22 72.068h-72.791l-9.393-72.068zm-120.877 0h57.743l9.393 72.068h-75.746zm-9.876 92.069h78.4v36.613h-78.4zm0 56.613h78.4v8.778c0 21.615-17.585 39.2-39.2 39.2s-39.2-17.585-39.2-39.2zm-20 8.778c0 21.615-17.585 39.2-39.2 39.2s-39.2-17.585-39.2-39.2v-.001c0-.087-.001-.174-.003-.261l-.227-8.516h78.63zm0-28.778h-78.9v-36.613h78.9zm-32.381-128.682h42.115l-8.61 72.068h-73.116zm-55.966 4.972c2.519-3.159 6.281-4.972 10.322-4.972h22.823l-39.612 72.068h-47.024zm-87.857 100.063c.126-7.15 6.046-12.967 13.198-12.967h.406 63.7v36.613h-77.304zm-.596 52.429v-8.782h78.162l.236 8.852c-.039 21.272-17.876 39.127-39.198 39.127-21.332-.001-39.2-17.857-39.2-39.197z"/><path d="m293.222 318.69h-54.242c-5.523 0-10 4.478-10 10v66.337h-2.422c-5.523 0-10 4.478-10 10s4.477 10 10 10h79.087c5.522 0 10-4.478 10-10s-4.478-10-10-10h-2.423v-66.337c0-5.522-4.478-10-10-10zm-10 76.337h-34.242v-56.337h34.242z"/><path d="m417.043 318.69h-54.242c-5.522 0-10 4.478-10 10v66.337h-2.422c-5.522 0-10 4.478-10 10s4.478 10 10 10h79.087c5.522 0 10-4.478 10-10s-4.478-10-10-10h-2.423v-66.337c0-5.522-4.477-10-10-10zm-10 76.337h-34.242v-56.337h34.242z"/><path d="m112.445 394.651c1.776 4.945 7.253 7.738 12.305 6.2 5.548-1.689 8.568-8.021 6.33-13.39-4.862-11.679-22.887-4.652-18.635 7.19z"/><path d="m466.853 352.505c-4.297 3.188-5.298 9.364-2.243 13.753 3.063 4.401 9.286 5.541 13.74 2.583 4.535-3.011 5.775-9.341 2.76-13.86-3.084-4.717-9.766-5.808-14.257-2.476z"/></g></svg>